<?xml version="1.0" ?>
<!-- Uploaded to: SVG Repo, www.svgrepo.com, Generator: SVG Repo Mixer Tools -->
<svg width="800px" height="800px" viewBox="0 0 72 72" xmlns="http://www.w3.org/2000/svg">
<g fill="none" fill-rule="evenodd">
<path d="M36,72 L36,72 C55.882251,72 72,55.882251 72,36 L72,36 C72,16.117749 55.882251,-3.65231026e-15 36,0 L36,0 C16.117749,3.65231026e-15 -2.4348735e-15,16.117749 0,36 L0,36 C2.4348735e-15,55.882251 16.117749,72 36,72 Z" fill="#EE4623"/>
<path d="M53.6748387,41.2692903 L53.6748387,36.3233548 L47.5710968,36.3233548 L47.5710968,41.4330323 C47.5710968,42.4747097 46.7268387,43.3212903 45.684,43.3212903 C44.6423226,43.3212903 43.7957419,42.4747097 43.7957419,41.4330323 L43.7957419,36.4197419 L40.076129,37.6785806 L37.7245161,36.3698065 L37.7245161,41.340129 C37.764,45.7112258 41.319871,49.243871 45.7014194,49.243871 C50.1050323,49.243871 53.6748387,45.6740645 53.6748387,41.2692903 M35.8374194,28.1188387 C34.7957419,28.1188387 33.9503226,28.9642581 33.9503226,30.0070968 L33.9503226,41.3842581 C33.8887742,45.7344516 30.3410323,49.243871 25.9745806,49.243871 C21.5698065,49.243871 18,45.6740645 18,41.2692903 L18,36.3233548 L24.1037419,36.3233548 L24.1037419,41.2042581 C24.1037419,42.2470968 24.9491613,43.0925161 25.992,43.0925161 C27.0348387,43.0925161 27.8790968,42.2470968 27.8790968,41.2042581 L27.8790968,29.6842581 C27.8790968,25.1656774 31.5313548,22 35.8374194,22 C40.1597419,22 43.7957419,25.384 43.7957419,29.731871 L43.7957419,32.2530323 L40.0749677,33.5107097 L37.7245161,32.2019355 L37.7245161,30.0070968 C37.7245161,28.9642581 36.8814194,28.1188387 35.8374194,28.1188387" fill="#FFF"/>
</g>
</svg>